<svg width="16" height="16" viewBox="0 0 16 16" fill="none" xmlns="http://www.w3.org/2000/svg">
<path d="M12.736 3.97006C12.8042 3.90042 12.8857 3.8451 12.9756 3.80734C13.0655 3.76957 13.162 3.75012 13.2595 3.75012C13.357 3.75012 13.4535 3.76957 13.5434 3.80734C13.6333 3.8451 13.7147 3.90042 13.783 3.97006C14.069 4.25906 14.073 4.72606 13.793 5.02006L7.87998 12.0101C7.81285 12.0838 7.73138 12.143 7.64056 12.1842C7.54974 12.2253 7.45148 12.2475 7.35179 12.2494C7.2521 12.2513 7.15307 12.2328 7.06077 12.1951C6.96847 12.1574 6.88483 12.1012 6.81498 12.0301L3.21698 8.38406C3.07822 8.24254 3.00049 8.05225 3.00049 7.85406C3.00049 7.65586 3.07822 7.46557 3.21698 7.32406C3.28523 7.25442 3.36668 7.1991 3.45657 7.16134C3.54646 7.12357 3.64298 7.10412 3.74048 7.10412C3.83798 7.10412 3.9345 7.12357 4.02439 7.16134C4.11428 7.1991 4.19573 7.25442 4.26398 7.32406L7.31598 10.4171L12.716 3.99206L12.736 3.97006Z" fill="#03D103"/>
</svg>
