<svg width="25" height="25" viewBox="0 0 25 25" fill="none" xmlns="http://www.w3.org/2000/svg">
<path d="M20.8734 17.5594C23.5312 15.1875 25 12.5 25 12.5C25 12.5 20.3125 3.90625 12.5 3.90625C10.9992 3.91017 9.51533 4.22291 8.14062 4.825L9.34375 6.02969C10.3558 5.66289 11.4235 5.47313 12.5 5.46875C15.8125 5.46875 18.5609 7.29375 20.575 9.30781C21.5454 10.2814 22.4144 11.3509 23.1687 12.5C23.0792 12.6354 22.9776 12.7854 22.8641 12.95C22.3406 13.7 21.5672 14.7 20.575 15.6922C20.3177 15.9505 20.0484 16.2036 19.7672 16.4516L20.8734 17.5594Z" fill="#999999"/>
<path d="M17.6517 14.3375C18.0004 13.3623 18.065 12.308 17.838 11.2975C17.6109 10.287 17.1016 9.36176 16.3692 8.62941C15.6369 7.89706 14.7116 7.38772 13.7011 7.16068C12.6906 6.93363 11.6364 6.9982 10.6611 7.34688L11.9471 8.63282C12.5475 8.54687 13.1598 8.60195 13.7353 8.7937C14.3108 8.98544 14.8337 9.30859 15.2627 9.73752C15.6916 10.1665 16.0147 10.6894 16.2065 11.2649C16.3982 11.8404 16.4533 12.4526 16.3674 13.0531L17.6517 14.3375ZM13.0533 16.3672L14.3377 17.6516C13.3624 18.0002 12.3082 18.0648 11.2977 17.8378C10.2872 17.6107 9.36195 17.1014 8.62959 16.369C7.89724 15.6367 7.38791 14.7114 7.16086 13.7009C6.93381 12.6904 6.99838 11.6362 7.34706 10.6609L8.633 11.9469C8.54705 12.5474 8.60213 13.1596 8.79388 13.7351C8.98563 14.3106 9.30877 14.8336 9.73771 15.2625C10.1666 15.6914 10.6896 16.0146 11.2651 16.2063C11.8406 16.3981 12.4528 16.4531 13.0533 16.3672Z" fill="#999999"/>
<path d="M5.23438 8.54687C4.95312 8.79687 4.68333 9.05051 4.425 9.30781C3.45463 10.2814 2.5856 11.3509 1.83125 12.5L2.13594 12.95C2.65937 13.7 3.43281 14.7 4.425 15.6922C6.43906 17.7062 9.18906 19.5312 12.5 19.5312C13.6187 19.5312 14.6719 19.3234 15.6563 18.9687L16.8594 20.175C15.4847 20.7771 14.0008 21.0898 12.5 21.0937C4.6875 21.0937 0 12.5 0 12.5C0 12.5 1.46719 9.81093 4.12656 7.44062L5.23281 8.54843L5.23438 8.54687ZM21.3219 22.4281L2.57188 3.67812L3.67813 2.57187L22.4281 21.3219L21.3219 22.4281Z" fill="#999999"/>
</svg>
