<svg width="25" height="25" viewBox="0 0 25 25" fill="none" xmlns="http://www.w3.org/2000/svg">
<path d="M12.5 5C7.5 5 3.125 8.125 0 12.5C3.125 16.875 7.5 20 12.5 20C17.5 20 21.875 16.875 25 12.5C21.875 8.125 17.5 5 12.5 5ZM12.5 17.5C10.0208 17.5 7.91667 15.9792 7.91667 12.5C7.91667 10.0208 10.0208 7.91667 12.5 7.91667C14.9792 7.91667 17.0833 10.0208 17.0833 12.5C17.0833 15.9792 14.9792 17.5 12.5 17.5ZM12.5 10C11.2917 10 10.4167 10.875 10.4167 12.0833C10.4167 13.2917 11.2917 14.1667 12.5 14.1667C13.7083 14.1667 14.5833 13.2917 14.5833 12.0833C14.5833 10.875 13.7083 10 12.5 10Z" fill="#999999"/>
</svg>
