<svg width="25" height="25" viewBox="0 0 25 25" fill="none" xmlns="http://www.w3.org/2000/svg">
<path d="M18.0939 9.9824C18.4844 10.3729 18.4844 11.0061 18.0939 11.3966C17.7034 11.7871 17.0702 11.7871 16.6797 11.3966L13.8887 8.60561L13.8887 15.6919C13.8887 16.2442 13.441 16.6919 12.8887 16.6919C12.3364 16.6919 11.8887 16.2442 11.8887 15.6919L11.8887 8.60563L9.09578 11.3986C8.70526 11.7891 8.07209 11.7891 7.68157 11.3986C7.29104 11.008 7.29104 10.3749 7.68156 9.98435L12.1816 5.4843C12.3691 5.29676 12.6235 5.19141 12.8887 5.19141C13.1539 5.19141 13.4083 5.29676 13.5958 5.4843L18.0939 9.9824Z" fill="#777E90"/>
<path fill-rule="evenodd" clip-rule="evenodd" d="M4.88672 14.6914C5.439 14.6914 5.88672 15.1391 5.88672 15.6914V17.6914C5.88672 18.2437 6.33443 18.6914 6.88672 18.6914L18.8867 18.6914C19.439 18.6914 19.8867 18.2437 19.8867 17.6914V15.6914C19.8867 15.1391 20.3344 14.6914 20.8867 14.6914C21.439 14.6914 21.8867 15.1391 21.8867 15.6914V17.6914C21.8867 19.3483 20.5436 20.6914 18.8867 20.6914L6.88672 20.6914C5.22986 20.6914 3.88672 19.3483 3.88672 17.6914L3.88672 15.6914C3.88672 15.1391 4.33443 14.6914 4.88672 14.6914Z" fill="#777E90"/>
</svg>
