<svg width="80" height="80" viewBox="0 0 80 80" fill="none" xmlns="http://www.w3.org/2000/svg">
<g clip-path="url(#clip0_3962_21774)">
<path d="M43.1846 61.8027C40.9013 62.565 38.3768 62.995 35.8368 62.995C23.1679 62.995 12.8979 52.725 12.8979 40.0561C12.8979 27.3872 23.1679 17.1172 35.8368 17.1172C47.9057 17.1172 57.7974 26.5489 58.7074 38.3844" stroke="#AFBED3" stroke-width="0.615385" stroke-miterlimit="10" stroke-linecap="round" stroke-linejoin="round"/>
<path opacity="0.3" d="M35.7847 62.9933C35.8024 62.9933 35.8191 62.9944 35.8369 62.9944V62.96C35.8197 62.9711 35.8024 62.9833 35.7847 62.9933Z" fill="#AFBED3"/>
<path opacity="0.3" d="M35.8369 17.1516V17.1172C35.8191 17.1172 35.8024 17.1183 35.7847 17.1183C35.8024 17.1289 35.8197 17.1411 35.8369 17.1516Z" fill="#AFBED3"/>
<path opacity="0.3" d="M22.8457 40.0564C22.8457 30.1619 28.284 21.498 35.7807 17.1191C23.1379 17.1497 12.8984 27.4069 12.8984 40.0564C12.8984 52.7064 23.1379 62.963 35.7807 62.9936C28.2818 58.6153 22.8457 49.9525 22.8457 40.0564Z" fill="#AFBED3"/>
<path d="M35.7829 62.995C28.2835 58.6166 22.8457 49.9533 22.8457 40.0561C22.8457 30.1605 28.2851 21.4961 35.7829 17.1172V62.995Z" stroke="#AFBED3" stroke-width="0.615385" stroke-miterlimit="10" stroke-linecap="round" stroke-linejoin="round"/>
<path d="M48.6749 37.3172C47.7333 28.6239 42.5527 21.0711 35.7827 17.1172V62.995C37.541 61.9683 39.2749 60.6483 40.7722 59.19" stroke="#AFBED3" stroke-width="0.615385" stroke-miterlimit="10" stroke-linecap="round" stroke-linejoin="round"/>
<path d="M52.5179 24.2744C50.7724 27.4605 43.9668 29.8366 35.8368 29.8366C27.7324 29.8366 20.9435 27.475 19.1724 24.3033" stroke="#AFBED3" stroke-width="0.615385" stroke-miterlimit="10" stroke-linecap="round" stroke-linejoin="round"/>
<path d="M19.3306 55.9822C21.3195 52.9433 27.9561 50.71 35.8367 50.71C36.5906 50.71 37.3333 50.7305 38.0617 50.77" stroke="#AFBED3" stroke-width="0.615385" stroke-miterlimit="10" stroke-linecap="round" stroke-linejoin="round"/>
<path d="M43.0596 40.2742L12.9062 40.2676" stroke="#AFBED3" stroke-width="0.615385" stroke-miterlimit="10" stroke-linecap="round" stroke-linejoin="round"/>
<path d="M77.7269 67.2839C77.3997 67.7917 76.8914 68.1172 76.3386 68.2372C75.7858 68.3567 75.1886 68.2711 74.6808 67.9439L62.9336 60.3795C62.9191 60.37 62.9053 60.3611 62.8891 60.3461C60.9614 62.5306 58.3491 64.1428 55.2853 64.8061C47.6525 66.4595 40.1264 61.6128 38.473 53.98C36.8208 46.3467 41.6669 38.8206 49.3003 37.1672C56.933 35.5139 64.4591 40.3606 66.1125 47.9934C66.7658 51.01 66.4053 54.0061 65.2558 56.6317C65.283 56.6445 65.3047 56.6578 65.3258 56.6717L77.0658 64.2317C78.0886 64.8911 78.3858 66.2611 77.7269 67.2839Z" stroke="#AFBED3" stroke-width="0.615385" stroke-miterlimit="10" stroke-linecap="round" stroke-linejoin="round"/>
<path d="M54.5854 61.568C60.4312 60.3017 64.1436 54.5362 62.8773 48.6905C61.611 42.8447 55.8455 39.1323 49.9997 40.3986C44.154 41.6649 40.4416 47.4303 41.7079 53.2761C42.9742 59.1219 48.7396 62.8343 54.5854 61.568Z" stroke="#AFBED3" stroke-width="0.615385" stroke-miterlimit="10" stroke-linecap="round" stroke-linejoin="round"/>
<path d="M5.24219 50.1504V56.2648" stroke="#AFBED3" stroke-width="0.615385" stroke-miterlimit="10" stroke-linecap="round" stroke-linejoin="round"/>
<path d="M8.2995 53.207H2.18506" stroke="#AFBED3" stroke-width="0.615385" stroke-miterlimit="10" stroke-linecap="round" stroke-linejoin="round"/>
<path d="M17.5273 63.0596V66.7201" stroke="#AFBED3" stroke-width="0.615385" stroke-miterlimit="10" stroke-linecap="round" stroke-linejoin="round"/>
<path d="M19.3573 64.8896H15.6968" stroke="#AFBED3" stroke-width="0.615385" stroke-miterlimit="10" stroke-linecap="round" stroke-linejoin="round"/>
<path d="M13.0698 12.3174V18.4318" stroke="#AFBED3" stroke-width="0.615385" stroke-miterlimit="10" stroke-linecap="round" stroke-linejoin="round"/>
<path d="M16.1271 15.374H10.0127" stroke="#AFBED3" stroke-width="0.615385" stroke-miterlimit="10" stroke-linecap="round" stroke-linejoin="round"/>
<g clip-path="url(#clip1_3962_21774)">
<path d="M53.4997 47.7745C53.2456 47.7745 53.0396 47.5685 53.0396 47.3144V45.4602C53.0396 45.206 53.2456 45 53.4997 45C53.7538 45 53.9599 45.206 53.9599 45.4602V47.3144C53.9599 47.5685 53.7538 47.7745 53.4997 47.7745Z" fill="#AFBED3"/>
<path opacity="0.52" d="M53.4997 58.0001C53.2456 58.0001 53.0396 57.7942 53.0396 57.54V55.6857C53.0396 55.4316 53.2456 55.2256 53.4997 55.2256C53.7538 55.2256 53.9599 55.4316 53.9599 55.6857V57.54C53.9599 57.7942 53.7538 58.0001 53.4997 58.0001Z" fill="#AFBED3"/>
<path opacity="0.58" d="M55.7822 57.5523C55.6008 57.5523 55.4288 57.4443 55.356 57.266L54.6553 55.5492C54.5593 55.3139 54.6722 55.0453 54.9075 54.9493C55.1426 54.8532 55.4113 54.9661 55.5074 55.2014L56.2081 56.9182C56.3041 57.1534 56.1912 57.4221 55.956 57.5181C55.899 57.5413 55.8401 57.5523 55.7822 57.5523Z" fill="#AFBED3"/>
<path opacity="0.94" d="M55.0812 48.0847C55.0233 48.0847 54.9644 48.0737 54.9075 48.0504C54.6722 47.9544 54.5593 47.6858 54.6553 47.4505L55.3561 45.7338C55.4521 45.4985 55.7207 45.3853 55.956 45.4817C56.1912 45.5776 56.3041 45.8463 56.2081 46.0816L55.5074 47.7983C55.4346 47.9767 55.2626 48.0847 55.0812 48.0847Z" fill="#AFBED3"/>
<path opacity="0.46" d="M51.2169 57.5523C51.159 57.5523 51.1001 57.5414 51.0432 57.5181C50.8079 57.4221 50.695 57.1535 50.7911 56.9182L51.4918 55.2014C51.5878 54.9661 51.8564 54.8532 52.0917 54.9494C52.327 55.0453 52.4399 55.314 52.3438 55.5493L51.6431 57.266C51.5703 57.4443 51.3984 57.5523 51.2169 57.5523Z" fill="#AFBED3"/>
<path opacity="0.36" d="M47.9082 54.2424C47.7267 54.2424 47.5548 54.1345 47.482 53.9561C47.386 53.7208 47.4988 53.4522 47.7341 53.3562L49.4508 52.6555C49.6861 52.5591 49.9547 52.6722 50.0508 52.9076C50.1468 53.1429 50.0339 53.4115 49.7986 53.5075L48.0819 54.2082C48.025 54.2315 47.9661 54.2424 47.9082 54.2424Z" fill="#AFBED3"/>
<path opacity="0.82" d="M57.375 50.3782C57.1935 50.3782 57.0216 50.2702 56.9488 50.0918C56.8528 49.8565 56.9656 49.5879 57.2009 49.4919L58.9176 48.7912C59.1528 48.6949 59.4215 48.8079 59.5175 49.0433C59.6136 49.2786 59.5007 49.5472 59.2654 49.6432L57.5487 50.3439C57.4918 50.3672 57.4329 50.3782 57.375 50.3782Z" fill="#AFBED3"/>
<path opacity="0.24" d="M49.6246 50.3781C49.5667 50.3781 49.5078 50.3671 49.4508 50.3438L47.7341 49.6431C47.4988 49.5471 47.386 49.2785 47.482 49.0432C47.578 48.8079 47.8466 48.695 48.0819 48.7911L49.7986 49.4918C50.0339 49.5878 50.1468 49.8564 50.0508 50.0917C49.978 50.27 49.806 50.3781 49.6246 50.3781Z" fill="#AFBED3"/>
<path opacity="0.7" d="M59.0914 54.2423C59.0335 54.2423 58.9746 54.2313 58.9176 54.208L57.2009 53.5073C56.9656 53.4113 56.8528 53.1427 56.9488 52.9074C57.0449 52.6723 57.3134 52.5593 57.5487 52.6553L59.2654 53.356C59.5007 53.452 59.6136 53.7206 59.5176 53.9559C59.4448 54.1342 59.2728 54.2423 59.0914 54.2423Z" fill="#AFBED3"/>
<path opacity="0.88" d="M56.4596 49C56.3419 49 56.2241 48.955 56.1343 48.8652C55.9546 48.6855 55.9546 48.3942 56.1343 48.2145L57.4454 46.9034C57.6251 46.7236 57.9164 46.7236 58.0961 46.9034C58.2758 47.083 58.2758 47.3744 58.0961 47.554L56.785 48.8652C56.6952 48.955 56.5774 49 56.4596 49Z" fill="#AFBED3"/>
<path opacity="0.4" d="M49.2292 56.2314C49.1114 56.2314 48.9937 56.1865 48.9038 56.0966C48.7241 55.917 48.7241 55.6256 48.9038 55.446L50.2149 54.1348C50.3946 53.9551 50.686 53.9551 50.8657 54.1348C51.0453 54.3145 51.0454 54.6058 50.8657 54.7855L49.5546 56.0966C49.4647 56.1865 49.3469 56.2314 49.2292 56.2314Z" fill="#AFBED3"/>
<path opacity="0.18" d="M50.5403 49.0009C50.4225 49.0009 50.3048 48.956 50.2149 48.8661L48.9038 47.555C48.7241 47.3753 48.7241 47.0839 48.9038 46.9043C49.0835 46.7246 49.3749 46.7246 49.5546 46.9043L50.8657 48.2154C51.0454 48.3951 51.0454 48.6864 50.8657 48.8661C50.7758 48.956 50.658 49.0009 50.5403 49.0009Z" fill="#AFBED3"/>
<path opacity="0.64" d="M57.7708 56.2314C57.653 56.2314 57.5353 56.1864 57.4454 56.0966L56.1343 54.7854C55.9546 54.6058 55.9546 54.3144 56.1343 54.1347C56.314 53.9551 56.6053 53.9551 56.785 54.1347L58.0961 55.4459C58.2758 55.6256 58.2758 55.9169 58.0961 56.0966C58.0063 56.1864 57.8885 56.2314 57.7708 56.2314Z" fill="#AFBED3"/>
<path opacity="0.3" d="M49.3143 51.9603H47.4602C47.206 51.9603 47 51.7544 47 51.5002C47 51.246 47.206 51.04 47.4602 51.04H49.3143C49.5685 51.04 49.7745 51.246 49.7745 51.5002C49.7745 51.7544 49.5685 51.9603 49.3143 51.9603Z" fill="#AFBED3"/>
<path opacity="0.76" d="M59.5395 51.9603H57.6853C57.4311 51.9603 57.2251 51.7544 57.2251 51.5002C57.2251 51.246 57.4311 51.04 57.6853 51.04H59.5395C59.7936 51.04 59.9996 51.246 59.9996 51.5002C59.9996 51.7544 59.7936 51.9603 59.5395 51.9603Z" fill="#AFBED3"/>
</g>
</g>
<defs>
<clipPath id="clip0_3962_21774">
<rect width="80" height="80" fill="white"/>
</clipPath>
<clipPath id="clip1_3962_21774">
<rect width="13" height="13" fill="white" transform="translate(47 45)"/>
</clipPath>
</defs>
</svg>
