<svg width="24" height="24" viewBox="0 0 24 24" fill="none" xmlns="http://www.w3.org/2000/svg">
<path d="M9 11V10C9 8.34 9.5 7 12 7C14.5 7 15 8.34 15 10V11" stroke="#292D32" stroke-width="1.5" stroke-linecap="round" stroke-linejoin="round"/>
<path d="M11.9999 14.6C12.3312 14.6 12.5999 14.3314 12.5999 14C12.5999 13.6687 12.3312 13.4 11.9999 13.4C11.6685 13.4 11.3999 13.6687 11.3999 14C11.3999 14.3314 11.6685 14.6 11.9999 14.6Z" stroke="#292D32" stroke-width="1.5" stroke-linecap="round" stroke-linejoin="round"/>
<path d="M14.5 17H9.5C7.5 17 7 16.5 7 14.5V13.5C7 11.5 7.5 11 9.5 11H14.5C16.5 11 17 11.5 17 13.5V14.5C17 16.5 16.5 17 14.5 17Z" stroke="#292D32" stroke-width="1.5" stroke-linecap="round" stroke-linejoin="round"/>
<path d="M12 22C17.5228 22 22 17.5228 22 12C22 6.47715 17.5228 2 12 2C6.47715 2 2 6.47715 2 12C2 17.5228 6.47715 22 12 22Z" stroke="#292D32" stroke-width="1.5" stroke-linecap="round" stroke-linejoin="round"/>
</svg>
